<?xml version="1.0" standalone="no"?>
<!DOCTYPE svg PUBLIC "-//W3C//DTD SVG 20010904//EN"
 "http://www.w3.org/TR/2001/REC-SVG-20010904/DTD/svg10.dtd">
<svg version="1.0" xmlns="http://www.w3.org/2000/svg"
 width="460.000000pt" height="460.000000pt" viewBox="0 0 460.000000 460.000000"
 preserveAspectRatio="xMidYMid meet">
<metadata>
Created by potrace 1.14, written by Peter Selinger 2001-2017
</metadata>
<g transform="translate(0.000000,460.000000) scale(0.100000,-0.100000)"
fill="#000000" stroke="none">
<path d="M1550 4161 c0 -6 4 -13 10 -16 6 -3 7 1 4 9 -7 18 -14 21 -14 7z"/>
<path d="M1587 4164 c-3 -3 -4 -11 -1 -18 3 -8 -6 -12 -26 -12 -16 0 -30 4
-30 10 0 7 -3 6 -8 -1 -4 -6 -34 -13 -67 -15 -43 -2 -59 -7 -57 -16 1 -8 -2
-11 -8 -7 -6 3 -8 11 -5 16 4 5 1 9 -6 9 -6 0 -9 -8 -7 -17 4 -16 -3 -18 -54
-18 -34 0 -57 -4 -55 -10 1 -5 -3 -11 -8 -12 -6 -2 -10 2 -10 7 0 6 -4 9 -10
8 -5 -2 -9 -8 -7 -14 1 -6 -4 -11 -10 -12 -7 -1 -31 -3 -53 -6 -22 -2 -43 -4
-47 -5 -5 0 -8 -8 -8 -16 0 -10 -9 -14 -30 -11 -17 2 -33 0 -36 -5 -2 -4 -12
-6 -22 -3 -9 3 -6 -2 8 -10 25 -15 24 -15 -22 -16 -27 0 -48 -4 -48 -10 0 -5
5 -10 12 -10 6 0 8 -3 4 -7 -4 -5 -15 1 -23 12 -12 16 -14 16 -10 3 7 -21 -1
-27 -42 -30 -17 -1 -31 -6 -31 -11 0 -5 8 -6 18 -3 15 5 15 5 -1 -8 -11 -8
-27 -13 -38 -11 -11 2 -19 -2 -19 -10 0 -19 -17 -28 -54 -28 -17 1 -25 -1 -18
-4 6 -3 12 -9 12 -14 0 -6 -4 -7 -10 -4 -6 3 -10 1 -10 -5 0 -6 -8 -10 -17 -8
-12 2 -18 -3 -17 -14 1 -12 -5 -18 -20 -18 -12 0 -28 -9 -36 -20 -8 -11 -22
-20 -32 -20 -11 0 -18 -7 -18 -20 0 -13 -5 -18 -15 -14 -14 6 -20 -6 -16 -30
1 -5 -7 -6 -19 -3 -15 4 -20 0 -20 -13 0 -11 -5 -22 -12 -26 -7 -5 -9 -2 -4 7
4 8 1 5 -8 -5 -8 -10 -17 -23 -18 -28 -2 -5 -13 -10 -25 -11 -17 -1 -20 -4
-11 -15 9 -10 6 -14 -10 -19 -13 -3 -22 -13 -22 -25 0 -12 -6 -18 -17 -16 -12
2 -17 -3 -15 -13 1 -9 -5 -23 -15 -30 -11 -9 -14 -10 -9 -1 4 6 2 12 -3 12 -6
0 -12 -8 -13 -17 0 -10 -2 -23 -2 -30 -1 -6 -5 -15 -10 -20 -5 -4 -6 -3 -3 3
4 7 1 14 -6 17 -9 3 -13 -5 -13 -27 0 -23 -4 -31 -17 -30 -12 1 -17 -6 -17
-23 0 -16 -4 -22 -12 -17 -8 5 -9 2 -5 -9 3 -9 1 -19 -5 -23 -6 -4 -8 -3 -4 4
3 6 2 14 -4 17 -6 4 -10 3 -9 -2 1 -4 1 -21 0 -37 -1 -21 -5 -27 -17 -22 -8 3
-12 2 -9 -4 3 -6 1 -10 -6 -10 -7 0 -9 -3 -6 -7 4 -3 1 -13 -6 -21 -9 -13 -9
-14 1 -8 7 4 12 2 12 -4 0 -7 -9 -14 -20 -17 -18 -5 -27 -37 -21 -75 0 -4 -6
-5 -14 -2 -16 7 -16 6 -20 -46 -2 -19 -4 -37 -5 -40 -1 -3 -2 -8 -1 -12 0 -4
-6 -5 -14 -2 -10 4 -15 0 -16 -12 -2 -40 -7 -79 -9 -84 -1 -3 -2 -9 -1 -13 1
-5 -3 -6 -9 -2 -8 5 -8 11 -1 19 8 9 7 13 -2 13 -7 0 -13 -10 -14 -21 -4 -97
-7 -126 -15 -126 -5 0 -6 4 -3 10 4 6 -1 7 -11 3 -10 -4 -13 -8 -7 -10 7 -3 9
-11 6 -19 -4 -10 0 -13 13 -8 16 5 16 3 -1 -8 -14 -9 -21 -24 -22 -50 -1 -79
-3 -89 -13 -83 -6 4 -7 11 -4 17 4 6 3 8 -3 5 -6 -4 -11 -85 -11 -216 0 -177
2 -210 14 -215 11 -4 13 -13 9 -27 -6 -16 -4 -20 6 -13 12 6 12 5 0 -9 -9 -11
-10 -17 -2 -17 6 0 11 -5 11 -11 0 -5 -4 -7 -10 -4 -7 4 -7 -3 0 -19 5 -14 6
-26 2 -26 -4 0 0 -5 8 -10 8 -5 11 -10 5 -10 -5 0 -10 -13 -10 -30 0 -16 4
-30 8 -30 5 0 6 -4 3 -8 -2 -4 0 -14 6 -22 8 -12 9 -12 4 2 -3 10 -2 20 3 22
4 3 9 -20 10 -52 1 -31 8 -60 14 -64 9 -6 9 -8 0 -8 -7 0 -13 -7 -13 -15 0 -8
5 -15 11 -15 5 0 7 5 3 12 -4 7 -3 8 5 4 6 -4 9 -11 6 -16 -3 -5 -1 -11 5 -15
13 -8 13 -25 -1 -25 -5 0 -8 4 -4 9 3 5 0 13 -6 17 -8 4 -9 3 -5 -4 4 -7 1
-12 -6 -12 -9 0 -9 -3 2 -10 13 -9 13 -11 0 -20 -8 -5 -10 -10 -5 -10 6 0 15
4 21 10 6 6 9 -24 9 -85 0 -52 -3 -95 -7 -95 -5 0 -7 3 -7 8 3 19 -2 32 -12
32 -8 0 -8 -4 0 -14 9 -11 9 -15 -1 -19 -11 -4 -10 -6 0 -6 8 -1 10 -6 5 -13
-4 -7 -8 -23 -9 -35 0 -15 4 -20 15 -16 13 5 13 3 -1 -8 -13 -10 -18 -32 -19
-84 -2 -57 -6 -73 -23 -87 -13 -11 -16 -18 -8 -18 8 0 10 -5 6 -12 -5 -7 -8
-54 -9 -105 -1 -80 1 -92 17 -96 12 -4 18 -15 18 -34 0 -17 8 -34 20 -43 11
-8 20 -20 20 -28 0 -8 5 -10 13 -6 9 6 9 4 -1 -7 -17 -18 -15 -34 2 -20 16 14
25 4 21 -22 -2 -11 3 -17 16 -17 12 0 19 -7 19 -20 0 -11 5 -20 11 -20 5 0 8
4 4 9 -3 5 0 13 6 17 7 4 9 3 5 -4 -3 -6 -1 -14 5 -17 5 -4 8 -13 5 -21 -3 -9
2 -14 14 -14 13 0 20 -7 20 -18 0 -18 11 -22 60 -22 19 0 21 -3 12 -12 -20
-20 -14 -31 14 -25 19 3 24 1 20 -10 -4 -8 4 -17 20 -23 15 -6 22 -14 18 -22
-4 -6 -3 -8 4 -4 5 3 13 0 16 -6 4 -7 4 -3 2 10 -2 12 0 20 5 16 5 -3 9 -12 9
-20 0 -8 9 -14 20 -14 13 0 20 -7 20 -18 0 -15 7 -18 35 -17 19 1 33 -1 30 -4
-8 -15 12 -30 45 -33 19 -3 36 -10 36 -16 3 -25 5 -27 14 -12 5 8 10 10 10 4
0 -6 14 -11 31 -12 18 0 37 -6 43 -12 8 -8 4 -10 -17 -6 -15 3 -25 1 -23 -3 3
-4 24 -8 48 -10 23 -1 46 -7 50 -14 6 -9 8 -8 9 3 0 10 3 8 8 -5 5 -12 18 -20
37 -21 52 -3 55 -4 49 -16 -4 -7 0 -5 8 5 10 12 17 15 22 7 4 -6 14 -9 22 -6
8 4 11 1 8 -5 -4 -6 -13 -8 -21 -5 -7 3 -16 1 -19 -4 -4 -6 15 -11 44 -11 28
-1 60 -3 71 -4 11 -1 26 -3 33 -4 8 -1 8 -4 -3 -11 -8 -5 -11 -12 -7 -16 3 -4
13 -1 22 6 10 8 15 9 15 1 0 -7 20 -11 49 -11 39 0 51 -4 54 -17 4 -16 5 -16
6 -1 1 20 38 21 38 1 0 -9 -4 -10 -14 -2 -10 9 -13 8 -13 -4 0 -16 16 -17 39
-3 7 5 16 4 20 -1 3 -6 27 -9 54 -8 43 2 51 -2 49 -25 -1 -9 37 -9 43 0 2 4
-3 7 -12 6 -9 0 -18 6 -20 14 -3 9 -1 11 4 5 4 -5 15 -10 23 -10 8 0 18 5 22
10 5 6 8 6 8 -2 0 -6 9 -10 20 -8 11 2 18 0 15 -5 -3 -5 -14 -7 -25 -5 -11 2
-20 0 -20 -6 0 -8 141 -15 193 -9 10 1 25 -7 32 -17 11 -15 16 -16 27 -5 11
11 10 12 -4 7 -10 -4 -18 -3 -18 1 0 5 20 9 45 10 25 0 45 -3 45 -8 0 -5 -4
-7 -8 -4 -5 3 -9 0 -9 -7 0 -9 79 -12 329 -12 281 0 330 2 339 15 10 13 10 13
6 0 -4 -13 10 -15 93 -15 54 0 96 4 93 8 -3 5 -12 6 -22 2 -13 -5 -13 -4 -4 6
9 9 55 14 135 17 81 2 128 8 138 16 8 7 40 14 70 16 95 4 105 5 119 14 9 6 12
5 8 -2 -5 -6 1 -8 14 -5 11 3 23 11 25 18 3 7 28 13 62 15 103 3 117 5 130 13
6 5 16 5 22 2 6 -4 7 1 3 11 -4 12 -2 15 8 12 8 -3 13 -11 11 -17 -1 -7 2 -10
8 -6 6 3 8 11 5 16 -4 5 8 9 25 9 17 0 29 4 25 9 -3 5 0 13 6 17 7 4 9 3 5 -4
-10 -17 10 -23 36 -12 l23 11 -24 -5 c-16 -3 -21 -2 -14 5 6 6 32 12 58 15 27
2 50 6 53 9 3 3 10 1 17 -3 6 -4 3 1 -7 10 -17 16 -17 16 14 16 75 -1 93 2 78
11 -8 6 -18 7 -24 4 -5 -4 -6 -1 -2 6 5 7 11 10 14 7 3 -3 12 0 20 7 11 8 14
8 9 0 -4 -6 -3 -14 3 -18 5 -3 10 0 10 7 0 8 11 15 25 16 47 3 55 5 55 14 0 5
-10 6 -22 3 -18 -5 -20 -4 -8 4 8 6 30 11 48 11 24 0 31 4 26 13 -5 8 -2 8 9
-2 19 -15 24 -2 6 16 -8 8 -3 11 19 9 17 -1 41 2 54 7 22 9 22 9 3 16 -14 6
-5 10 35 15 37 5 50 10 40 16 -8 5 -19 6 -25 3 -5 -4 -7 -2 -2 2 4 5 18 10 30
12 38 6 49 13 43 28 -3 8 -2 14 2 14 31 -5 62 3 62 16 0 14 12 19 33 16 4 0 7
8 7 19 0 13 7 20 20 20 11 0 20 6 20 14 0 7 9 16 20 19 14 3 18 10 14 21 -4 9
-3 16 2 15 24 -4 36 2 30 16 -5 13 5 20 27 16 4 0 7 8 7 19 0 14 7 20 23 20
22 1 22 1 2 17 -16 13 -17 15 -2 10 16 -6 23 13 18 45 0 5 2 7 7 7 24 -4 28 6
28 71 -1 70 2 78 20 61 5 -6 9 31 9 101 0 105 1 111 23 119 12 5 22 15 22 24
0 8 3 14 8 14 20 -3 31 2 26 15 -3 9 3 17 15 21 11 3 20 9 20 13 -1 4 0 21 1
37 2 20 4 24 7 12 5 -18 5 -18 18 0 10 14 11 21 2 32 -10 12 -9 13 2 6 11 -6
13 -3 8 15 -4 17 -3 20 6 11 18 -18 31 -13 16 6 -10 11 -10 14 -1 9 11 -7 16
16 13 64 0 10 1 11 5 3 13 -29 32 -12 31 27 0 22 3 43 7 47 4 5 6 2 4 -6 -2
-7 3 -16 10 -18 8 -3 12 9 13 44 1 61 5 84 17 92 14 8 13 181 0 181 -6 0 -8 6
-5 14 4 10 0 12 -15 8 -16 -4 -19 -2 -13 8 6 9 4 11 -5 5 -10 -6 -10 -10 3
-20 14 -10 11 -12 -18 -13 -34 -1 -40 5 -36 36 1 6 -10 17 -24 22 -14 5 -25
12 -25 15 0 4 5 3 10 0 6 -3 10 3 10 14 0 12 -4 21 -10 21 -5 0 -7 7 -4 15 5
11 -1 15 -20 16 -14 1 -32 2 -38 3 -7 1 -18 -5 -25 -14 -6 -9 -28 -17 -47 -18
-45 -3 -61 5 -46 23 8 9 6 14 -5 19 -9 3 -13 2 -10 -4 3 -6 1 -10 -4 -10 -6 0
-11 18 -11 40 0 33 -3 40 -20 40 -13 0 -20 7 -20 20 0 12 -5 17 -14 14 -15 -6
-23 17 -22 57 1 14 -4 26 -11 26 -7 0 -9 -5 -6 -10 3 -6 1 -7 -5 -3 -6 3 -11
23 -12 44 -1 66 -3 73 -17 68 -13 -5 -17 4 -13 37 2 19 -18 49 -29 43 -3 -2
-7 7 -7 20 -3 39 -13 57 -30 50 -9 -3 -12 -2 -9 5 4 6 14 8 22 5 9 -4 13 -1
10 6 -2 7 -11 12 -18 11 -13 -3 -18 14 -22 73 0 6 -9 9 -20 6 -13 -3 -18 -1
-13 6 9 14 -3 62 -15 62 -6 0 -5 -10 1 -22 11 -22 11 -23 -5 -3 -9 11 -14 28
-11 38 2 10 -2 21 -10 24 -8 3 -14 9 -14 15 0 5 5 6 12 2 7 -4 8 -3 4 5 -4 6
-12 9 -17 6 -5 -4 -9 -1 -9 5 0 6 -5 8 -12 4 -9 -5 -9 -2 1 9 10 13 11 20 2
30 -6 8 -7 18 -3 22 4 5 1 5 -6 1 -10 -6 -10 -11 -1 -22 10 -12 9 -13 -5 -8
-10 4 -16 18 -16 39 0 18 -3 41 -6 49 -6 15 -8 15 -20 -1 -12 -16 -13 -14 -12
20 1 43 -6 54 -26 38 -11 -9 -13 -6 -11 20 2 26 0 30 -16 26 -10 -3 -18 -2
-17 2 4 36 -4 61 -21 61 -14 0 -18 5 -14 21 5 16 2 20 -13 17 -18 -3 -20 1
-23 41 0 11 -10 23 -21 26 -11 3 -20 15 -20 25 0 11 -7 17 -17 16 -12 -1 -17
5 -15 17 2 11 -4 17 -18 17 -11 0 -19 3 -19 8 5 29 -2 40 -23 35 -22 -5 -22
-5 -5 9 17 13 17 14 -4 15 -27 2 -37 12 -41 38 -4 22 -16 31 -26 19 -4 -4 -1
-4 7 1 10 5 12 4 7 -4 -9 -14 -26 -5 -26 15 0 9 -7 14 -17 12 -13 -2 -17 3
-15 19 2 17 -1 20 -18 16 -11 -3 -20 -2 -19 3 4 23 -2 35 -17 32 -10 -2 -19 3
-21 10 -3 8 2 10 14 6 15 -5 15 -4 3 5 -8 6 -23 11 -32 11 -9 0 -18 8 -20 17
-2 10 -12 18 -23 18 -14 0 -19 6 -17 20 2 18 2 18 -8 3 -6 -10 -16 -18 -23
-18 -7 0 -6 4 3 10 18 11 10 21 -19 23 -15 1 -19 6 -15 19 4 14 0 18 -21 18
-20 0 -26 4 -22 14 4 10 1 13 -8 9 -8 -3 -12 -10 -8 -16 3 -6 1 -7 -6 -3 -9 6
-9 11 -1 21 9 11 5 13 -20 10 -24 -3 -30 -1 -28 12 2 9 -5 17 -16 19 -10 1
-22 8 -26 14 -6 9 -9 9 -13 -1 -4 -10 -6 -9 -6 4 -1 10 -9 17 -20 17 -11 0
-23 9 -26 21 -7 20 -7 20 -22 2 -13 -16 -14 -17 -9 0 4 13 0 17 -19 17 -14 0
-25 6 -25 13 0 9 -3 8 -9 -2 -5 -7 -14 -10 -20 -6 -8 5 -9 11 -2 19 8 10 1 13
-31 14 -47 2 -59 9 -38 22 17 11 15 11 -55 13 -39 2 -49 5 -47 18 2 16 -5 18
-75 19 -31 1 -43 5 -43 15 0 13 -26 21 -53 16 -4 -1 -16 3 -27 9 -13 7 -20 6
-23 -3 -4 -9 -8 -9 -15 2 -7 10 -14 11 -31 1 -20 -10 -23 -9 -28 9 -5 21 -32
24 -176 24 -13 0 -16 5 -12 21 5 15 4 17 -3 7 -6 -7 -12 -9 -15 -4 -4 6 -120
10 -291 10 -189 0 -283 -3 -279 -10 4 -6 1 -7 -8 -1 -22 14 -39 13 -39 -1 0
-21 -14 -24 -30 -7 -13 14 -12 15 3 9 11 -4 16 -3 12 3 -7 11 -19 13 -28 4z
m66 -19 c-3 -9 -8 -14 -10 -11 -3 3 -2 9 2 15 9 16 15 13 8 -4z m567 0 c0 -2
-6 -5 -13 -8 -8 -3 -14 1 -14 8 0 7 6 11 14 8 7 -3 13 -6 13 -8z m25 6 c3 -5
2 -12 -3 -15 -5 -3 -9 1 -9 9 0 17 3 19 12 6z m372 -87 c-3 -3 -12 -4 -19 -1
-8 3 -5 6 6 6 11 1 17 -2 13 -5z m-1473 -22 c3 -5 -1 -9 -9 -9 -8 0 -12 4 -9
9 3 4 7 8 9 8 2 0 6 -4 9 -8z m-1107 -1408 c0 -7 -6 -10 -14 -7 -7 3 -13 8
-13 12 0 4 6 8 13 8 8 0 14 -6 14 -13z m4088 -74 c3 -5 1 -10 -4 -10 -6 0 -11
5 -11 10 0 6 2 10 4 10 3 0 8 -4 11 -10z m-4095 -280 c0 -5 -5 -10 -11 -10 -5
0 -7 5 -4 10 3 6 8 10 11 10 2 0 4 -4 4 -10z m4460 -92 c0 -4 -4 -8 -9 -8 -6
0 -12 4 -15 8 -3 5 1 9 9 9 8 0 15 -4 15 -9z m-4386 -569 c-3 -5 -10 -7 -15
-3 -5 3 -7 10 -3 15 3 5 10 7 15 3 5 -3 7 -10 3 -15z m4206 -170 c0 -6 -4 -7
-10 -4 -5 3 -10 11 -10 16 0 6 5 7 10 4 6 -3 10 -11 10 -16z m0 -23 c0 -3 -4
-8 -10 -11 -5 -3 -10 -1 -10 4 0 6 5 11 10 11 6 0 10 -2 10 -4z m0 -40 c0 -3
-4 -8 -10 -11 -5 -3 -10 -1 -10 4 0 6 5 11 10 11 6 0 10 -2 10 -4z m-3 -41 c0
-8 -4 -15 -9 -15 -10 0 -11 14 -1 23 9 10 10 9 10 -8z m-2 -35 c3 -5 1 -10 -4
-10 -6 0 -11 5 -11 10 0 6 2 10 4 10 3 0 8 -4 11 -10z m-285 -430 c0 -5 -5
-10 -11 -10 -5 0 -7 5 -4 10 3 6 8 10 11 10 2 0 4 -4 4 -10z m-3190 -254 c0
-2 -7 -7 -16 -10 -8 -3 -12 -2 -9 4 6 10 25 14 25 6z m2430 -60 c0 -2 -8 -10
-17 -17 -16 -13 -17 -12 -4 4 13 16 21 21 21 13z m-1420 -121 c0 -12 -19 -12
-23 0 -4 9 -1 12 9 8 7 -3 14 -7 14 -8z m693 -3 c-3 -7 -9 -10 -12 -5 -3 4
-10 11 -15 15 -4 4 1 6 12 5 12 -1 18 -6 15 -15z m-63 4 c0 -2 -7 -7 -16 -10
-8 -3 -12 -2 -9 4 6 10 25 14 25 6z"/>
<path d="M2291 4157 c-8 -10 -7 -14 2 -14 8 0 14 6 14 14 0 7 -1 13 -2 13 -2
0 -8 -6 -14 -13z"/>
<path d="M2460 4114 c0 -8 5 -12 10 -9 6 3 10 10 10 16 0 5 -4 9 -10 9 -5 0
-10 -7 -10 -16z"/>
<path d="M2646 4078 c3 -5 10 -6 15 -3 13 9 11 12 -6 12 -8 0 -12 -4 -9 -9z"/>
<path d="M805 3900 c-3 -5 -1 -10 4 -10 6 0 11 5 11 10 0 6 -2 10 -4 10 -3 0
-8 -4 -11 -10z"/>
<path d="M3470 3615 c-11 -13 -10 -14 4 -9 9 3 16 10 16 15 0 13 -6 11 -20 -6z"/>
<path d="M3547 3539 c7 -7 15 -10 18 -7 3 3 -2 9 -12 12 -14 6 -15 5 -6 -5z"/>
<path d="M3723 3325 c0 -8 4 -12 9 -9 5 3 6 10 3 15 -9 13 -12 11 -12 -6z"/>
<path d="M146 3178 c3 -5 10 -6 15 -3 13 9 11 12 -6 12 -8 0 -12 -4 -9 -9z"/>
<path d="M110 3078 c0 -4 4 -8 9 -8 6 0 12 4 15 8 3 5 -1 9 -9 9 -8 0 -15 -4
-15 -9z"/>
<path d="M4086 2687 c3 -10 9 -15 12 -12 3 3 0 11 -7 18 -10 9 -11 8 -5 -6z"/>
<path d="M0 2240 c0 -5 5 -10 10 -10 6 0 10 5 10 10 0 6 -4 10 -10 10 -5 0
-10 -4 -10 -10z"/>
<path d="M76 1782 c-3 -5 1 -9 9 -9 8 0 12 4 9 9 -3 4 -7 8 -9 8 -2 0 -6 -4
-9 -8z"/>
<path d="M75 1740 c-3 -5 -1 -10 4 -10 6 0 11 5 11 10 0 6 -2 10 -4 10 -3 0
-8 -4 -11 -10z"/>
<path d="M38 1458 c8 -8 9 -15 1 -25 -9 -10 -8 -13 4 -13 9 0 14 7 12 18 -2 9
-4 20 -4 25 -1 4 -6 7 -13 7 -9 0 -9 -3 0 -12z"/>
<path d="M45 1161 c-3 -5 -2 -12 3 -15 5 -3 9 1 9 9 0 17 -3 19 -12 6z"/>
<path d="M3064 509 c-5 -9 -2 -10 9 -6 9 3 18 2 21 -4 2 -5 3 -4 2 3 -3 17
-23 21 -32 7z"/>
<path d="M2825 470 c-2 -4 18 -7 45 -6 26 1 46 3 43 6 -8 8 -83 8 -88 0z"/>
<path d="M1680 435 c-11 -13 -10 -14 4 -9 9 3 16 10 16 15 0 13 -6 11 -20 -6z"/>
<path d="M2586 439 c2 -4 13 -7 24 -6 23 2 17 10 -10 12 -10 1 -17 -2 -14 -6z"/>
</g>
</svg>
